<?xml version="1.0" encoding="UTF-8"?>
<svg id="Camada_2" data-name="Camada 2" xmlns="http://www.w3.org/2000/svg" viewBox="0 0 124.26 236.09">
  <defs>
    <style>
      .cls-1 {
        fill: none;
        stroke: #000;
        stroke-miterlimit: 10;
        stroke-width: 2.08px;
      }
    </style>
  </defs>
  <g id="conteudo">
    <g>
      <path class="cls-1" d="M10.75,80.35c1.09-3.71,3.41-9.86,8.52-15.97.96-1.15,5.76-6.78,14.11-11.18,4.56-2.4,20.46-9.86,39.12-3.99,4.44,1.4,20.95,6.59,27.15,21.82.76,1.87,4.64,11.4,1.6,21.56-2.04,6.81-6.03,10.04-7.19,18.63-.23,1.71-.7,5.64.27,10.38,1.44,7.05,5.07,10.99,9.85,17.3,5.34,7.05,10.42,13.76,13.84,21.29,1.86,4.1,6.03,13.59,5.06,26.08-1.11,14.22-8.25,24.08-11.71,28.21-6.87,8.19-14.48,11.97-18.9,14.11-17.91,8.66-34.92,6.51-43.38,5.32-6.91-.97-15.07-2.19-24.22-7.45-4.84-2.79-14.25-8.2-19.7-19.7-1.68-3.54-6.28-13.27-2.93-25.02,3.38-11.83,12.53-17.7,14.9-19.16,9.17-5.68,18.21-5.3,22.62-5.06,3.05.17,18.92,1.37,29.81,14.11,2.41,2.81,8.61,10.07,7.98,19.7-.14,2.23-.48,7.36-4.26,10.65-6.56,5.7-17.58.75-18.63.27-7.51-3.5-12.82-11.16-13.57-19.16-.6-6.41,1.93-10.88,6.92-19.7,3.41-6.01,8.25-14.57,16.77-19.16,1.3-.7,3.14-1.56,5.32-3.46,1.75-1.53,5.95-5.2,6.92-11.18,1.25-7.69-3.76-13.51-4.52-14.37-.58-.66-6.67-7.27-15.97-6.12-.89.11-9.34,1.3-13.57,9.05-3.52,6.44-2.33,14.14,1.6,19.43,4.93,6.64,12.62,7.36,13.84,7.45"/>
      <line class="cls-1" x1="53" y1="0" x2="53.23" y2="183.08"/>
      <line class="cls-1" x1="67.46" y1=".61" x2="67.46" y2="142.74"/>
      <path class="cls-1" d="M33.92,206.47c1.27,1.85,9.12,12.88,23.42,14.64,12.78,1.57,25.68-4.89,33-16.5"/>
    </g>
  </g>
</svg>