<?xml version="1.0" encoding="UTF-8"?>
<svg id="Camada_2" data-name="Camada 2" xmlns="http://www.w3.org/2000/svg" viewBox="0 0 759.73 266.18">
  <defs>
    <style>
      .cls-1 {
        fill: #fff;
      }

      .cls-2 {
        fill: none;
        stroke: #fff;
        stroke-miterlimit: 10;
        stroke-width: 2.35px;
      }
    </style>
  </defs>
  <g id="conteudo">
    <g>
      <g>
        <path class="cls-1" d="M88.27,109.68c1.78,5,8.97,8.97,13.76,8.97v2.6c-10.13,0-13.76-1.92-20-1.92s-9.93,1.92-20,1.92v-2.6c4.79,0,7.6-3.97,5.96-8.9l-8.08-23.08H24.58l-8.08,23.01c-1.78,5,1.1,8.97,5.89,8.97v2.6c-5.96,0-7.81-1.92-11.16-1.92s-5.41,1.92-11.23,1.92v-2.6c5.21,0,12.19-4.38,13.76-8.97l27.12-77.32-2.67-7.46h20.41l29.65,84.78ZM25.47,84.14h33.49c-5.55-15.96-11.16-31.91-16.78-47.87l-16.71,47.87Z"/>
        <path class="cls-1" d="M137.36,54.69v2.6h-9.04v40.13c0,5.27-.34,15.07,6.09,16.85.82.21,1.71.34,2.53.34,5,0,9.38-4.04,12.33-8.49l2.6,1.71c-5.41,9.59-13.97,13.49-22.12,13.42-10.75-.07-20.75-7.6-20.75-23.97v-31.02c0-5.14-4.25-8.97-9.04-8.97v-2.6c15.41,0,25.75-9.93,25.75-21.98h2.6v21.98h9.04Z"/>
        <path class="cls-1" d="M219.74,76.19c-12.6,2.4-30.41,7.74-35.41,20.48-2.53,6.37-1.37,15.07,7.05,18.7,1.71.75,3.42,1.1,5.34,1.1,2.88,0,6.09-.96,9.45-3.22l1.37,2.12c-5.62,3.77-12.19,5.89-18.97,5.89-18.35,0-33.28-14.86-33.28-33.28s14.93-33.28,33.28-33.28c13.9,0,26.3,8.63,31.16,21.5ZM200.5,79.14c-4.38-12.4-11.78-21.02-18.15-21.02-.55,0-1.16.07-1.71.21-10.55,2.81-7.74,25.34-5.55,33.28,1.1,4.11,2.88,8.77,5.41,12.94-.34-7.05,2.6-12.88,7.67-17.6,3.29-3.15,7.53-5.68,12.33-7.81Z"/>
        <path class="cls-1" d="M223.29,118.65c4.79,0,9.04-3.83,9.04-8.97V41.2c0-5.27-3.9-8.9-8.7-8.42l-.34-2.53c8.97-1.99,19.86-1.58,28.35-5.34v84.78c0,5.14,4.25,8.97,9.04,8.97v2.6c-9.04,0-11.16-1.92-18.7-1.92s-9.66,1.92-18.7,1.92v-2.6Z"/>
        <path class="cls-1" d="M264.24,118.65c4.79,0,9.04-3.83,9.04-8.97v-38.69c0-5.27-3.97-8.83-8.7-8.42l-.34-2.53c8.97-1.99,19.86-1.58,28.28-5.27v54.92c0,5.14,4.31,8.97,9.11,8.97v2.6c-9.11,0-11.23-1.92-18.7-1.92s-9.66,1.92-18.7,1.92v-2.6ZM292.52,39.55c0,5.27-4.31,9.59-9.59,9.59s-9.66-4.31-9.66-9.59,4.31-9.66,9.66-9.66,9.59,4.31,9.59,9.66Z"/>
        <path class="cls-1" d="M369.49,76.19c-12.6,2.4-30.41,7.74-35.41,20.48-2.53,6.37-1.37,15.07,7.05,18.7,1.71.75,3.42,1.1,5.34,1.1,2.88,0,6.09-.96,9.45-3.22l1.37,2.12c-5.62,3.77-12.19,5.89-18.97,5.89-18.35,0-33.28-14.86-33.28-33.28s14.93-33.28,33.28-33.28c13.9,0,26.3,8.63,31.16,21.5ZM350.25,79.14c-4.38-12.4-11.78-21.02-18.15-21.02-.55,0-1.16.07-1.71.21-10.55,2.81-7.74,25.34-5.55,33.28,1.1,4.11,2.88,8.77,5.41,12.94-.34-7.05,2.6-12.88,7.67-17.6,3.29-3.15,7.53-5.68,12.33-7.81Z"/>
      </g>
      <g>
        <path class="cls-1" d="M395.25,120.41v.84c-2.94,0-3.6-.62-6.03-.62-1.35,0-2.34.4-3.12.62v-1.68c-1.46,1.13-3.18,1.68-5.01,1.68-6.28,0-9.54-5.68-9.43-11.42.09-5.35,3.29-10.05,9.24-10.05,2.41,0,3.93.91,5.21,3v-7.36c0-1.72-1.26-2.87-2.81-2.72l-.11-.82c2.89-.64,6.41-.51,9.15-1.72-.02,9.12-.02,18.25-.02,27.35.02,1.66,1.39,2.89,2.94,2.89ZM386.1,104.64c-.62-1.66-2.08-3.84-4.07-3.84-3.65,0-4.33,6.65-4.33,9.21,0,4.4,1.3,8.84,3.84,9.54.4.11.84.18,1.33.18.97,0,2.1-.29,3.23-1.17v-13.92Z"/>
        <path class="cls-1" d="M417.85,110.51c0,5.94-4.82,10.74-10.76,10.74s-10.74-4.79-10.74-10.74,4.82-10.74,10.74-10.74,10.76,4.82,10.76,10.74ZM411.46,109.34c-1.3-4.88-4.06-8.46-6.38-8.46-.18,0-.38.02-.55.07-2.41.64-3.23,5.46-1.79,10.74,1.3,4.88,4.07,8.48,6.36,8.48.2,0,.38-.02.55-.07,2.43-.66,3.23-5.46,1.81-10.76Z"/>
      </g>
      <path class="cls-1" d="M342.14,12.82l18.27,16.93-13.9.02-6.13-13.15-6,13.16-13.9.02,18.23-16.98h3.43Z"/>
      <g>
        <g>
          <path class="cls-1" d="M445.22,97.6c-.69,5.04-.31,9.69.93,13.66,2.63,8.57,9.2,12.41,15.61,12.41,6.62,0,13.03-3.87,13.55-10.57.21-3.05-1.13-6.37-4.87-9.63-11.23-9.79-35.22-16.61-36.52-33-.98-12.21,12.26-20.1,26.41-20.12,11.54-.01,19.23,4.69,26.56,13.3-5.23,3.33-9.6,8.74-12.75,14.8,1.43-10.5.18-26.08-13.71-26.07-11.43.01-15.31,12.5-6.54,21.27,7.11,7.06,19.99,12.08,28.28,19.03,6.2,5.19,7.28,10.54,7.12,15.04-.05,1.93-.53,3.7-1.38,5.41-4.32,8.63-15.79,12.55-26.47,12.57-11.86.01-23.13-5.06-28.96-13.3,5.23-3.27,9.6-8.69,12.74-14.8Z"/>
          <path class="cls-1" d="M548.24,99.55c.02,14.41-11.61,26.04-25.98,26.06-14.31.02-25.97-11.59-25.99-26-.02-14.35,11.61-26.04,25.92-26.06,14.37-.02,26.02,11.64,26.04,26ZM532.8,96.73c-3.17-11.83-9.85-20.5-15.46-20.49-.43,0-.91.06-1.33.16-5.82,1.56-7.78,13.24-4.29,26.04,3.17,11.83,9.85,20.55,15.41,20.55.48,0,.91-.05,1.33-.16,5.87-1.61,7.78-13.24,4.35-26.09Z"/>
          <path class="cls-1" d="M550.99,123.54c3.74,0,7.04-3.01,7.04-7.03l-.04-30.26c0-4.18-3.05-6.96-6.79-6.63l-.27-1.98c6.99-1.56,15.49-1.2,22.05-4.15v10.5c4.22-7.5,10.89-10.56,17.25-10.52,6.73.04,13.14,3.84,15.34,11.98,3.89-7.08,9.17-12.06,18.04-12.02,8.44.04,16.19,5.92,16.21,18.72l.03,24.26c0,4.02,3.37,7.01,7.11,7.01v2.04c-7.1,0-8.76-1.49-14.58-1.48-5.87,0-7.53,1.51-14.63,1.52v-2.04c3.79,0,7.1-3.01,7.09-7.03l-.03-24.37c0-4.12.25-11.78-4.82-13.17-.69-.16-1.34-.27-1.98-.27-5.34,0-9.71,5.96-11.74,10.57.11.96.16,1.93.16,3l.03,24.26c0,4.02,3.32,7.01,7.06,7.01v2.04c-7.05,0-8.7-1.49-14.58-1.48-5.88,0-7.53,1.51-14.58,1.52v-2.04c3.74,0,7.04-3.01,7.04-7.03l-.03-24.37c0-4.12.31-11.78-4.77-13.17-.64-.16-1.33-.27-1.98-.27-5.34,0-9.71,5.9-11.63,10.3l.04,27.53c0,4.02,3.37,7.01,7.11,7.01v2.04c-7.1,0-8.7-1.49-14.58-1.48-5.87,0-7.53,1.51-14.58,1.52v-2.04Z"/>
        </g>
        <path class="cls-2" d="M631.76,90.58c1.23-4.18,3.85-11.12,9.6-18,1.08-1.29,6.5-7.64,15.9-12.6,5.14-2.71,23.07-11.12,44.11-4.5,5.01,1.58,23.61,7.43,30.61,24.61.86,2.11,5.23,12.85,1.8,24.31-2.3,7.68-6.8,11.32-8.1,21-.26,1.93-.79,6.36.3,11.7,1.62,7.94,5.71,12.39,11.1,19.5,6.02,7.95,11.75,15.52,15.6,24.01,2.1,4.62,6.8,15.32,5.7,29.41-1.25,16.03-9.3,27.15-13.2,31.81-7.74,9.23-16.33,13.5-21.3,15.9-20.19,9.76-39.37,7.34-48.91,6-7.8-1.09-16.99-2.47-27.31-8.4-5.46-3.14-16.07-9.24-22.21-22.21-1.89-3.99-7.08-14.96-3.3-28.21,3.81-13.34,14.13-19.95,16.8-21.6,10.34-6.4,20.53-5.98,25.51-5.7,3.44.19,21.33,1.55,33.61,15.9,2.71,3.17,9.7,11.35,9,22.21-.16,2.52-.54,8.29-4.8,12-7.39,6.43-19.83.85-21,.3-8.47-3.94-14.46-12.58-15.3-21.6-.68-7.23,2.18-12.27,7.8-22.21,3.84-6.78,9.3-16.43,18.9-21.6,1.47-.79,3.54-1.75,6-3.9,1.98-1.73,6.71-5.86,7.8-12.6,1.41-8.67-4.23-15.23-5.1-16.2-.66-.74-7.52-8.2-18-6.9-1,.12-10.53,1.47-15.3,10.2-3.97,7.26-2.63,15.94,1.8,21.91,5.56,7.49,14.23,8.3,15.6,8.4"/>
        <line class="cls-2" x1="679.39" y1="0" x2="679.66" y2="206.41"/>
        <line class="cls-2" x1="695.7" y1=".68" x2="695.7" y2="160.93"/>
        <path class="cls-2" d="M657.88,232.78c1.43,2.08,10.28,14.52,26.41,16.5,14.41,1.77,28.95-5.52,37.21-18.6"/>
      </g>
    </g>
  </g>
</svg>