<?xml version="1.0" encoding="UTF-8"?>
<svg id="Camada_2" data-name="Camada 2" xmlns="http://www.w3.org/2000/svg" viewBox="0 0 784.5 524.34">
  <defs>
    <style>
      .cls-1 {
        fill: #cecece;
      }

      .cls-2 {
        fill: #020102;
      }

      .cls-3 {
        fill: #fff4e7;
      }

      .cls-4 {
        fill: #663a28;
      }
    </style>
  </defs>
  <rect class="cls-3" y=".06" width="784.5" height="524.06"/>
  <rect class="cls-2" x="653.74" y="393.17" width="130.75" height="131.01"/>
  <path d="M653.75,393.16v131.01c36.11,0,65.37-29.33,65.37-65.51s-29.27-65.51-65.37-65.51h0Z"/>
  <path class="cls-4" d="M784.5,524.18v-131.02c-36.11,0-65.37,29.33-65.37,65.51s29.27,65.51,65.37,65.51Z"/>
  <path class="cls-1" d="M763.58,497.97c-13.99-7.51-23.53-22.31-23.53-39.3s9.54-31.79,23.53-39.3v78.59h0Z"/>
  <rect class="cls-4" y=".12" width="130.75" height="131.02"/>
  <path class="cls-1" d="M65.37.12v131.02c36.11,0,65.37-29.33,65.37-65.51S101.48.12,65.37.12Z"/>
  <path d="M0,.12v131.02c36.11,0,65.37-29.33,65.37-65.51S36.11.12,0,.12Z"/>
  <rect class="cls-1" x="130.75" y="196.64" width="65.37" height="65.51"/>
  <rect class="cls-1" x="196.12" y="131.13" width="65.37" height="65.51"/>
  <path d="M239.23,196.64c0,23.86-19.3,43.19-43.11,43.19v-43.19h43.11Z"/>
  <path d="M196.12,153.45v43.19h-43.11c0-23.86,19.3-43.19,43.11-43.19Z"/>
  <path class="cls-2" d="M153.02,196.64h43.11v43.19c-23.81,0-43.11-19.34-43.11-43.19Z"/>
  <path class="cls-2" d="M239.23,196.64h-43.11v-43.19c23.81,0,43.11,19.34,43.11,43.19Z"/>
  <polygon class="cls-2" points="305.08 524.18 305.08 458.67 261.5 491.43 305.08 524.18"/>
  <polygon class="cls-2" points="348.67 524.18 348.67 458.67 305.08 491.43 348.67 524.18"/>
  <polygon class="cls-4" points="392.25 524.18 392.25 458.67 348.67 491.43 392.25 524.18"/>
  <polygon points="348.67 393.16 348.67 458.67 392.25 425.92 348.67 393.16"/>
  <polygon points="305.08 393.16 305.08 458.67 348.67 425.92 305.08 393.16"/>
  <polygon class="cls-4" points="261.5 393.16 261.5 458.67 305.08 425.92 261.5 393.16"/>
  <polygon class="cls-2" points="0 458.67 65.37 524.18 65.37 458.67 0 458.67"/>
  <polygon points="32.69 425.92 98.06 491.43 98.06 425.92 32.69 425.92"/>
  <polygon class="cls-4" points="65.37 393.16 130.75 458.67 130.75 393.16 65.37 393.16"/>
  <rect class="cls-4" x="523" y="131.13" width="130.75" height="131.01"/>
  <polygon class="cls-2" points="653.75 196.64 588.37 131.13 588.37 196.64 653.75 196.64"/>
  <polygon points="621.06 229.39 555.68 163.89 555.68 229.39 621.06 229.39"/>
  <polygon points="588.37 262.15 523 196.64 523 262.15 588.37 262.15"/>
  <polygon class="cls-2" points="130.75 131.13 130.75 262.15 0 262.15 0 196.64 65.37 131.13 130.75 131.13"/>
  <polygon class="cls-4" points="65.37 196.64 0 262.15 65.37 262.15 65.37 196.64"/>
  <polygon class="cls-4" points="130.75 196.64 65.37 262.15 130.75 262.15 130.75 196.64"/>
  <polygon points="65.37 196.64 130.75 131.13 65.37 131.13 65.37 196.64"/>
  <rect y="262.15" width="130.75" height="131.02"/>
  <polygon class="cls-2" points="98.06 393.16 0 393.16 0 360.41 32.69 327.66 98.06 393.16"/>
  <polygon class="cls-4" points="130.75 393.16 0 393.16 65.37 327.66 130.75 393.16"/>
  <polygon class="cls-1" points="130.75 360.41 130.75 393.16 32.69 393.16 98.06 327.66 130.75 360.41"/>
  <rect class="cls-4" x="130.75" y="262.14" width="130.75" height="131.02"/>
  <ellipse cx="196.12" cy="327.66" rx="34.46" ry="34.53"/>
  <polygon class="cls-2" points="130.75 262.15 261.5 262.15 196.12 327.66 130.75 262.15"/>
  <rect x="653.74" y=".11" width="130.75" height="131.02"/>
  <path class="cls-4" d="M784.5,131.13h-130.75c36.11-34.97,94.64-34.97,130.75,0h0Z"/>
  <path class="cls-2" d="M784.5,104.91h-130.75c36.11-34.97,94.64-34.97,130.75,0h0Z"/>
  <path class="cls-4" d="M784.5,78.68h-130.75c36.11-34.97,94.64-34.97,130.75,0h0Z"/>
  <path class="cls-2" d="M784.5,52.46h-130.75c36.11-34.97,94.64-34.97,130.75,0h0Z"/>
  <path class="cls-4" d="M784.5,26.23h-130.75c36.11-34.97,94.64-34.97,130.75,0h0Z"/>
  <polygon class="cls-2" points="392.25 .12 392.25 64.22 325.47 64.22 325.47 131.13 261.5 131.13 261.5 .12 392.25 .12"/>
  <rect class="cls-1" x="293.25" y="31.94" width="67.25" height="67.38"/>
  <rect x="293.25" y="31.94" width="33.62" height="33.69"/>
  <rect x="261.5" y="131.13" width="130.75" height="131.01"/>
  <rect class="cls-2" x="294.19" y="163.89" width="98.53" height="65.51"/>
  <ellipse class="cls-4" cx="294.19" cy="196.64" rx="32.69" ry="32.75"/>
  <ellipse class="cls-1" cx="326.87" cy="196.64" rx="17.28" ry="17.31"/>
  <path class="cls-1" d="M523,196.9v65.25h-65.35c-.02-.44-.02-.88-.02-1.32,0-35.32,28.57-63.95,63.82-63.95.52,0,1.04,0,1.55.02h0Z"/>
  <path class="cls-4" d="M476.52,131.93v83.64h-83.78c-.03-.56-.03-1.13-.03-1.69,0-45.28,36.63-81.98,81.81-81.98.66,0,1.33,0,1.99.03h.01Z"/>
  <rect class="cls-2" x="523" y="262.15" width="130.75" height="131.02"/>
  <path d="M522.87,392.9v-130.62h130.83c.04.88.04,1.76.04,2.64,0,70.71-57.2,128.02-127.76,128.02-1.04,0-2.07-.02-3.11-.04h0Z"/>
  <path class="cls-2" d="M522.87,362.15v-99.88h100.04c.03.67.03,1.34.03,2.02,0,54.06-43.74,97.89-97.69,97.89-.79,0-1.59-.02-2.38-.03h0Z"/>
  <path class="cls-1" d="M522.87,330.78v-68.51h68.62c.02.46.02.92.02,1.38,0,37.08-30,67.14-67.01,67.14-.54,0-1.09-.01-1.63-.02h0Z"/>
  <rect class="cls-4" x="523" y="393.16" width="130.75" height="131.01"/>
  <path class="cls-2" d="M651.72,485.61c-49.77,0-90.12-40.43-90.12-90.3,0-.73,0-1.47.02-2.2h28.89c0,.5-.02,1.01-.02,1.51,0,34.21,27.68,61.94,61.82,61.94.42,0,.85,0,1.27-.02v29.05c-.63.03-1.24.03-1.86.03h0Z"/>
  <path d="M524.8,431.84c49.77,0,90.12,40.43,90.12,90.3,0,.73,0,1.47-.02,2.2h-28.89c0-.5.02-1.01.02-1.51,0-34.21-27.68-61.94-61.82-61.94-.42,0-.85,0-1.27.02v-29.05c.63-.03,1.24-.03,1.86-.03h0Z"/>
  <rect class="cls-4" x="392.25" y=".11" width="130.75" height="131.02"/>
  <ellipse class="cls-1" cx="431.82" cy="39.77" rx="25.8" ry="25.86"/>
  <ellipse class="cls-2" cx="483.43" cy="39.77" rx="25.8" ry="25.86"/>
  <ellipse cx="431.82" cy="91.48" rx="25.8" ry="25.86"/>
  <ellipse class="cls-1" cx="483.43" cy="91.48" rx="25.8" ry="25.86"/>
  <rect class="cls-2" x="523" y=".12" width="32.66" height="32.73"/>
  <rect class="cls-1" x="555.77" y="32.74" width="32.66" height="32.73"/>
  <rect class="cls-1" x="555.77" y="98.19" width="32.66" height="32.73"/>
  <rect class="cls-2" x="588.43" y="65.46" width="32.66" height="32.73"/>
  <rect class="cls-2" x="523.11" y="65.46" width="32.66" height="32.73"/>
  <rect class="cls-2" x="588.43" y="0" width="32.66" height="32.73"/>
  <rect class="cls-1" x="621.09" y="98.19" width="32.66" height="32.73"/>
  <rect class="cls-1" x="621.09" y="32.74" width="32.66" height="32.73"/>
  <rect class="cls-2" x="392.25" y="393.17" width="130.75" height="131.01"/>
  <path d="M497.66,498.79c-13.16,3.52-27.21,2.86-40.04-1.99-8.42-3.19-16.33-8.18-23.12-14.97-6.78-6.8-11.76-14.73-14.94-23.16-4.84-12.86-5.5-26.94-1.99-40.12,13.16-3.52,27.21-2.86,40.04,1.99,8.42,3.19,16.33,8.18,23.12,14.97,6.78,6.8,11.76,14.73,14.94,23.16,4.84,12.86,5.5,26.94,1.99,40.12Z"/>
  <path class="cls-1" d="M495.68,458.67c-3.18-8.44-8.16-16.36-14.94-23.16-6.79-6.79-14.7-11.78-23.12-14.97,12.83-4.85,26.88-5.51,40.04-1.99,3.51,13.19,2.86,27.26-1.99,40.12h0Z"/>
  <path class="cls-1" d="M457.62,496.8c-12.83,4.85-26.88,5.51-40.04,1.99-3.51-13.19-2.86-27.26,1.99-40.12,3.18,8.44,8.16,16.36,14.94,23.16,6.79,6.79,14.7,11.78,23.12,14.97h0Z"/>
  <path class="cls-4" d="M495.68,458.67c-3.18,8.44-8.16,16.36-14.94,23.16-6.79,6.79-14.7,11.78-23.12,14.97-8.42-3.19-16.33-8.18-23.12-14.97-6.78-6.8-11.76-14.73-14.94-23.16,3.18-8.44,8.16-16.36,14.94-23.16,6.79-6.79,14.7-11.78,23.12-14.97,8.42,3.19,16.33,8.18,23.12,14.97,6.78,6.8,11.76,14.73,14.94,23.16Z"/>
  <rect class="cls-1" x="683.27" y="131.9" width="71.71" height="100.67"/>
  <path class="cls-4" d="M754.98,232.57h-71.71v-14.48c0-19.8,16.05-35.86,35.86-35.86h0c19.8,0,35.86,16.05,35.86,35.86v14.48h0Z"/>
  <rect x="130.75" y=".11" width="130.75" height="131.02"/>
  <ellipse class="cls-2" cx="196.12" cy="65.63" rx="65.37" ry="65.51"/>
  <ellipse class="cls-4" cx="196.12" cy="65.63" rx="32.71" ry="32.78"/>
  <rect class="cls-2" x="261.5" y="262.15" width="130.75" height="131.02"/>
  <path class="cls-1" d="M392.25,274.49v-12.34c-36.05,0-65.37,29.38-65.37,65.51s29.32,65.51,65.37,65.51v-12.34c-29.26,0-53.06-23.85-53.06-53.17s23.8-53.17,53.06-53.17h0Z"/>
  <path class="cls-1" d="M392.25,298.47v-12.34c-22.85,0-41.44,18.63-41.44,41.53s18.59,41.53,41.44,41.53v-12.34c-16.06,0-29.12-13.09-29.12-29.18s13.07-29.18,29.12-29.18v-.02Z"/>
  <path class="cls-1" d="M392.25,321.3v-12.34c-10.29,0-18.67,8.39-18.67,18.7s8.38,18.7,18.67,18.7v-12.34c-3.51,0-6.35-2.85-6.35-6.36s2.84-6.36,6.35-6.36h0Z"/>
  <path d="M261.5,262.15v131.02c36.11,0,65.37-29.33,65.37-65.51s-29.27-65.51-65.37-65.51Z"/>
  <rect x="130.75" y="393.17" width="130.75" height="131.01"/>
  <path class="cls-4" d="M196.12,524.18v-131.01c-36.11,0-65.37,29.33-65.37,65.51s29.27,65.51,65.37,65.51h0Z"/>
  <polygon class="cls-2" points="196.12 393.16 261.5 458.67 196.12 524.18 196.12 393.16"/>
  <rect class="cls-4" x="653.74" y="262.14" width="130.75" height="131.02"/>
  <path class="cls-1" d="M704.24,281.76h60.68v60.86c0,17.07-13.86,30.93-30.93,30.93h-29.75c-17.07,0-30.93-13.86-30.93-30.93v-29.94c0-17.07,13.86-30.93,30.93-30.93h0Z"/>
  <ellipse cx="719.12" cy="327.66" rx="24.45" ry="24.5"/>
  <rect x="392.25" y="262.15" width="130.75" height="131.02"/>
  <path class="cls-2" d="M523,327.66h-130.75c0,36.18,29.27,65.51,65.37,65.51s65.37-29.33,65.37-65.51h.01Z"/>
  <path class="cls-4" d="M457.62,262.15v65.51h65.37c0-36.18-29.27-65.51-65.37-65.51Z"/>
  <ellipse class="cls-1" cx="457.62" cy="327.66" rx="18.66" ry="18.7"/>
</svg>